<?xml version="1.0" standalone="no"?><!DOCTYPE svg PUBLIC "-//W3C//DTD SVG 1.1//EN" "http://www.w3.org/Graphics/SVG/1.1/DTD/svg11.dtd"><svg t="1585992412297" class="icon" viewBox="0 0 1024 1024" version="1.1" xmlns="http://www.w3.org/2000/svg" p-id="9595" xmlns:xlink="http://www.w3.org/1999/xlink" width="200" height="200"><defs><style type="text/css"></style></defs><path d="M170.666667 285.257143C170.666667 316.952381 197.485714 341.333333 226.742857 341.333333s56.07619-26.819048 56.076191-56.07619c0-31.695238-24.380952-56.07619-56.076191-56.076191-31.695238 0-56.07619 24.380952-56.07619 56.076191z m212.114285 358.4l-97.523809-48.761905v-207.238095c0-12.190476-9.752381-24.380952-24.380953-24.380953H195.047619c-12.190476 0-24.380952 9.752381-24.380952 24.380953v214.552381c0 9.752381 7.314286 19.504762 17.066666 21.942857l148.72381 60.952381v134.095238c0 12.190476 9.752381 24.380952 24.380952 24.380952h14.628572c12.190476 0 24.380952-9.752381 24.380952-24.380952v-153.6c-2.438095-9.752381-9.752381-19.504762-17.066667-21.942857z m358.4-358.4c0 31.695238 26.819048 56.07619 56.076191 56.07619 31.695238 0 56.07619-26.819048 56.07619-56.07619 0-31.695238-24.380952-56.07619-56.07619-56.076191-31.695238 0-58.514286 24.380952-56.076191 56.076191z m87.771429 78.019047h-65.828571c-12.190476 0-24.380952 9.752381-24.380953 24.380953v207.238095l-97.523809 48.761905c-9.752381 2.438095-14.628571 12.190476-14.628572 21.942857v153.6c0 12.190476 9.752381 24.380952 24.380953 24.380952h14.628571c12.190476 0 24.380952-9.752381 24.380952-24.380952v-134.095238l148.72381-60.952381c9.752381-2.438095 17.066667-12.190476 17.066667-21.942857v-214.552381c-2.438095-12.190476-12.190476-21.942857-26.819048-24.380953z m-351.085714 207.238096H463.238095c-12.190476 0-24.380952 9.752381-24.380952 24.380952V755.809524c0 12.190476 9.752381 24.380952 24.380952 24.380952h14.628572c12.190476 0 24.380952-9.752381 24.380952-24.380952v-160.914286c-2.438095-12.190476-12.190476-24.380952-24.380952-24.380952z m82.895238 0h-14.628572c-12.190476 0-24.380952 9.752381-24.380952 24.380952V755.809524c0 12.190476 9.752381 24.380952 24.380952 24.380952h14.628572c12.190476 0 24.380952-9.752381 24.380952-24.380952v-160.914286c0-12.190476-12.190476-24.380952-24.380952-24.380952zM455.92381 226.742857c0 31.695238 26.819048 56.07619 56.07619 56.076191s56.07619-26.819048 56.07619-56.076191C568.07619 195.047619 543.695238 170.666667 512 170.666667c-31.695238 0-56.07619 26.819048-56.07619 56.07619zM341.333333 541.257143h341.333334c12.190476 0 19.504762-9.752381 19.504762-19.504762s-9.752381-19.504762-19.504762-19.504762h-92.647619v-163.352381c0-12.190476-9.752381-24.380952-24.380953-24.380952h-107.27619c-12.190476 0-24.380952 9.752381-24.380953 24.380952v163.352381H341.333333c-12.190476 0-19.504762 9.752381-19.504762 19.504762s7.314286 19.504762 19.504762 19.504762z" p-id="9596"></path></svg>