<?xml version="1.0" standalone="no"?><!DOCTYPE svg PUBLIC "-//W3C//DTD SVG 1.1//EN" "http://www.w3.org/Graphics/SVG/1.1/DTD/svg11.dtd"><svg t="1579491200761" class="icon" viewBox="0 0 1024 1024" version="1.1" xmlns="http://www.w3.org/2000/svg" p-id="15264" xmlns:xlink="http://www.w3.org/1999/xlink" width="200" height="200"><defs><style type="text/css"></style></defs><path d="M799.6 192H768c-17.7 0-32 14.3-32 32s14.3 32 32 32h31.6c17.8 0 32.4 14.5 32.4 32.4V448H192V288.4c0-17.8 14.5-32.4 32.4-32.4H256c17.7 0 32-14.3 32-32s-14.3-32-32-32h-31.6c-53.1 0-96.4 43.2-96.4 96.4v511.3c0 53.1 43.2 96.4 96.4 96.4h575.3c53.1 0 96.4-43.2 96.4-96.4V288.4c-0.1-53.2-43.3-96.4-96.5-96.4z m0 640H224.4c-17.8 0-32.4-14.5-32.4-32.4V512h640v287.6c0 17.9-14.5 32.4-32.4 32.4z" p-id="15265"></path><path d="M448 256h128c17.7 0 32-14.3 32-32s-14.3-32-32-32H448c-17.7 0-32 14.3-32 32s14.3 32 32 32zM352 352c17.7 0 32-14.3 32-32V160c0-17.7-14.3-32-32-32s-32 14.3-32 32v160c0 17.7 14.3 32 32 32zM672 352c17.7 0 32-14.3 32-32V160c0-17.7-14.3-32-32-32s-32 14.3-32 32v160c0 17.7 14.3 32 32 32zM352 576h-64c-17.7 0-32 14.3-32 32s14.3 32 32 32h64c17.7 0 32-14.3 32-32s-14.3-32-32-32zM352 704h-64c-17.7 0-32 14.3-32 32s14.3 32 32 32h64c17.7 0 32-14.3 32-32s-14.3-32-32-32zM544 576h-64c-17.7 0-32 14.3-32 32s14.3 32 32 32h64c17.7 0 32-14.3 32-32s-14.3-32-32-32zM544 704h-64c-17.7 0-32 14.3-32 32s14.3 32 32 32h64c17.7 0 32-14.3 32-32s-14.3-32-32-32zM736 576h-64c-17.7 0-32 14.3-32 32s14.3 32 32 32h64c17.7 0 32-14.3 32-32s-14.3-32-32-32zM736 704h-64c-17.7 0-32 14.3-32 32s14.3 32 32 32h64c17.7 0 32-14.3 32-32s-14.3-32-32-32z" p-id="15266"></path></svg>