<?xml version="1.0" standalone="no"?><!DOCTYPE svg PUBLIC "-//W3C//DTD SVG 1.1//EN" "http://www.w3.org/Graphics/SVG/1.1/DTD/svg11.dtd"><svg t="1534785228445" class="icon" style="" viewBox="0 0 1024 1024" version="1.1" xmlns="http://www.w3.org/2000/svg" p-id="7576" xmlns:xlink="http://www.w3.org/1999/xlink" width="200" height="200"><defs><style type="text/css"></style></defs><path d="M540.125 497.937h407.813c7.777 0 14.063-6.286 14.063-14.063 0-232.987-188.888-421.875-421.875-421.875-7.777 0-14.063 6.286-14.063 14.063v407.813c0 7.777 6.286 14.063 14.063 14.063zM554.188 90.477c206.255 7.256 372.080 173.067 379.336 379.336h-379.336v-379.336z" p-id="7577"></path><path d="M947.938 526.063h-379.688c-0.619 0-1.153 0.267-1.758 0.337-1.181 0.155-2.363 0.267-3.487 0.703-1.097 0.436-2.011 1.181-2.939 1.87-0.506 0.38-1.111 0.577-1.575 1.013-0.028 0.028-0.042 0.084-0.070 0.113-1.209 1.181-2.138 2.602-2.855 4.148-0.056 0.127-0.197 0.225-0.253 0.352-0.225 0.534-0.211 1.181-0.366 1.758-0.323 1.181-0.717 2.377-0.731 3.6l-0.028 0.169c0 0.745 0.309 1.406 0.436 2.137 0.169 1.041 0.225 2.081 0.619 3.080 0.492 1.238 1.294 2.25 2.095 3.277 0.295 0.394 0.436 0.886 0.802 1.252l0.141 0.141c0.014 0.028 0.028 0.042 0.056 0.056l263.559 272.939c1.041 1.083 2.306 1.772 3.572 2.461l12.966 12.966c76.359-76.345 123.567-181.814 123.567-298.308v0c0-7.777-6.286-14.063-14.063-14.063zM837.209 798.383l-235.828-244.195h332.128c-3.277 93.333-39.009 178.355-96.3 244.195z" p-id="7578"></path><path d="M762.692 818.492c0 0-242.311-260.48-256.106-274.275-8.48-8.48-8.648-23.709-8.648-23.709v-388.195c0-7.777-6.286-14.063-14.063-14.063-232.987 0-421.875 188.887-421.875 421.875s188.887 421.875 421.875 421.875c116.494 0 221.963-47.208 298.308-123.567l-18.773-18.773c-0.281-0.366-0.38-0.816-0.717-1.167zM483.875 933.875c-217.463 0-393.75-176.287-393.75-393.75 0-212.752 168.75-385.973 379.688-393.398 0 0 0 366.581 0 379.336s4.823 25.453 14.288 34.903 257.794 276.441 257.794 276.441c-69.103 60.047-159.286 96.469-258.019 96.469z" p-id="7579"></path></svg>