<?xml version="1.0" standalone="no"?><!DOCTYPE svg PUBLIC "-//W3C//DTD SVG 1.1//EN" "http://www.w3.org/Graphics/SVG/1.1/DTD/svg11.dtd"><svg t="1557769889939" class="icon" style="" viewBox="0 0 1024 1024" version="1.1" xmlns="http://www.w3.org/2000/svg" p-id="9111" xmlns:xlink="http://www.w3.org/1999/xlink" width="200" height="200"><defs><style type="text/css"></style></defs><path d="M170.891942 1023.97952l671.9968 0c26.459631 0 48.00416-21.544529 48.00416-48.00416l0-671.9968c0-0.552949-0.245755-0.98302-0.286714-1.49501-0.061439-0.737265-0.245755-1.372133-0.409592-2.088918-0.552949-2.273235-1.474531-4.321194-2.887622-6.102918-0.225275-0.286714-0.184316-0.634867-0.409592-0.921582l-255.99488-288.00448c-0.102398-0.102398-0.225275-0.102398-0.327673-0.184316-1.925081-2.047959-4.362153-3.461051-7.126897-4.280234-0.614388-0.184316-1.146857-0.266235-1.781724-0.348153-0.921582-0.163837-1.781724-0.552949-2.744265-0.552949l-447.99104 0c-26.459631 0-48.00416 21.544529-48.00416 48.00416l0 927.99168c0 26.459631 21.544529 48.00416 48.00416 48.00416zM634.877542 58.080118l204.386312 229.924362-188.371273 0c-7.044979 0-15.99456-13.434611-15.99456-24.00208l0-205.922282zM154.897382 48.00416c0-8.826703 7.208816-15.99456 15.99456-15.99456l431.99648 0 0 231.9928c0 25.886202 20.950621 55.9912 48.00416 55.9912l207.99072 0 0 655.98176c0 8.826703-7.208816 15.99456-15.99456 15.99456l-671.9968 0c-8.970061 0-15.99456-7.044979-15.99456-15.99456l0-927.99168zM298.889382 447.99104l416.00192 0c8.826703 0 15.99456-7.167857 15.99456-15.99456s-7.167857-15.99456-15.99456-15.99456l-416.00192 0c-8.826703 0-15.99456 7.167857-15.99456 15.99456s7.167857 15.99456 15.99456 15.99456zM298.889382 575.98848l416.00192 0c8.826703 0 15.99456-7.167857 15.99456-15.99456s-7.167857-15.99456-15.99456-15.99456l-416.00192 0c-8.826703 0-15.99456 7.167857-15.99456 15.99456s7.167857 15.99456 15.99456 15.99456zM298.889382 319.9936l191.99616 0c8.826703 0 15.99456-7.167857 15.99456-15.99456s-7.167857-15.99456-15.99456-15.99456l-191.99616 0c-8.826703 0-15.99456 7.167857-15.99456 15.99456s7.167857 15.99456 15.99456 15.99456zM298.889382 703.98592l416.00192 0c8.826703 0 15.99456-7.167857 15.99456-15.99456s-7.167857-15.99456-15.99456-15.99456l-416.00192 0c-8.826703 0-15.99456 7.167857-15.99456 15.99456s7.167857 15.99456 15.99456 15.99456zM298.889382 831.98336l416.00192 0c8.826703 0 15.99456-7.167857 15.99456-15.99456s-7.167857-15.99456-15.99456-15.99456l-416.00192 0c-8.826703 0-15.99456 7.167857-15.99456 15.99456s7.167857 15.99456 15.99456 15.99456z" p-id="9112"></path></svg>