<?xml version="1.0" standalone="no"?><!DOCTYPE svg PUBLIC "-//W3C//DTD SVG 1.1//EN" "http://www.w3.org/Graphics/SVG/1.1/DTD/svg11.dtd"><svg t="1546225219766" class="icon" style="" viewBox="0 0 1024 1024" version="1.1" xmlns="http://www.w3.org/2000/svg" p-id="10032" xmlns:xlink="http://www.w3.org/1999/xlink" width="200" height="200"><defs><style type="text/css"></style></defs><path d="M686.276 598.222c0-89.438-83.613-109.962-119.306-118.723l-13.308-3.375c-100.503-25.799-121.418-31.17-121.418-66.782 0-39.294 37.371-53.233 69.37-53.233 55.35 0 84.427 21.127 88.743 64.55h81.506c-2.541-91.607-77.383-117.951-129.003-125.203v-39.521c0-7.232-5.868-13.099-13.099-13.099h-32.757c-7.242 0-13.104 5.868-13.104 13.099v38.027c-67.534 6.914-132.874 46.093-132.874 123.154 0 77.505 63.86 100.864 123.723 116.674 9.185 2.45 18.38 4.705 27.4 6.914 52.92 12.965 102.908 25.216 102.908 68.276 0 53.836-67.288 58.021-87.904 58.021-60.219 0-96.93-29.386-99.153-78.897h-81.304c0.564 37.39 12.927 68.547 36.778 92.673 25.67 25.968 64.945 42.757 110.435 47.848v37.255c0 7.232 5.862 13.099 13.104 13.099h32.757c7.232 0 13.1-5.868 13.1-13.099v-36.956c89.226-8.553 143.404-56.994 143.404-130.7zM511.479 90.125c-232.706 0-421.355 188.648-421.355 421.359 0 232.701 188.648 421.349 421.354 421.349 232.711 0 421.355-188.648 421.355-421.349-0.006-232.711-188.648-421.359-421.355-421.359M511.017 872.127c-198.638 0-359.664-161.026-359.664-359.664 0-198.633 161.026-359.659 359.664-359.659 198.633 0 359.659 161.026 359.659 359.659s-161.026 359.664-359.659 359.664z" p-id="10033"></path></svg>