<?xml version="1.0" standalone="no"?><!DOCTYPE svg PUBLIC "-//W3C//DTD SVG 1.1//EN" "http://www.w3.org/Graphics/SVG/1.1/DTD/svg11.dtd"><svg t="1562762865468" class="icon" viewBox="0 0 1024 1024" version="1.1" xmlns="http://www.w3.org/2000/svg" p-id="3309" xmlns:xlink="http://www.w3.org/1999/xlink" width="200" height="200"><defs><style type="text/css"></style></defs><path d="M943.9 527.6c0-238.2-193.1-431.2-431.2-431.2C274.9 96.4 82 289 81.5 526.7V613.8c0 23.8 19.3 43.1 43.1 43.1s43.1-19.3 43.1-43.1v-86.6c0.1-46.5 9.2-91.5 27.1-133.8 35.1-82.7 100.9-148.6 183.6-183.6 42.5-18 87.6-27.1 134.2-27.1s91.8 9.1 134.2 27.1c82.7 35.1 148.6 100.9 183.6 183.6 18 42.5 27.1 87.6 27.1 134.2 0 46.6-9.1 91.8-27.1 134.2-34.8 82.8-100.7 148.6-183.4 183.7-42.5 18-87.6 27.1-134.2 27.1h-345v-86.2c0-23.8-19.3-43.1-43.1-43.1s-43.1 19.3-43.1 43.1v129.4c0 23.8 19.3 43.1 43.1 43.1H518c0.9 0 1.7 0 2.5-0.1 234.5-4.2 423.4-195.6 423.4-431.2z" fill="" p-id="3310"></path><path d="M544.6 574.8c0-35 22.3-48.3 47.6-69.9 19.3-16.4 43.1-43.1 43.1-87.8v-30.5c0-71.4-58-120.5-129.4-120.5h-3.7c-71.4 0-129.4 49.1-129.4 120.5v6.7c0 57.3 86.3 57.3 86.3 0v-0.7c0-23.1 18.6-40.9 43.1-40.9h3.7c24.5 0 43.1 17.9 43.1 40.9v24.5c0 10.4-3 18.6-13.4 28.3-43.9 41.6-77.3 58.7-77.3 130.1v29.8c0 57.3 86.3 57.3 86.3 0v-30.5zM458.4 731.7v17.9c0 26 21.6 39.4 43.1 39.4 21.6 0 43.1-13.4 43.1-39.4v-17.9c0-26-21.6-39.4-43.1-39.4s-43.1 13.4-43.1 39.4z" fill="" p-id="3311"></path></svg>