<?xml version="1.0" standalone="no"?><!DOCTYPE svg PUBLIC "-//W3C//DTD SVG 1.1//EN" "http://www.w3.org/Graphics/SVG/1.1/DTD/svg11.dtd"><svg t="1557769848305" class="icon" style="" viewBox="0 0 1024 1024" version="1.1" xmlns="http://www.w3.org/2000/svg" p-id="8362" xmlns:xlink="http://www.w3.org/1999/xlink" width="200" height="200"><defs><style type="text/css"></style></defs><path d="M914 192 430 192c-5.582 0-8.542-1.17-12.188-4.816l-45.002-45.002-0.336-0.324C362.73 132.666 354.722 128 338 128L114 128c-27.57 0-50 20.634-50 46l0 672c0 26.634 23.366 50 50 50l800 0c25.366 0 46-22.43 46-50L960 238C960 211.346 940.654 192 914 192zM114 160l224 0c6.994 0 7.474 0.378 12.35 4.976l44.834 44.836c9.68 9.68 20.744 14.188 34.816 14.188l484 0c8.896 0 14 5.104 14 14l0 84.752c-5.008-1.776-10.39-2.752-16-2.752L112 320c-5.61 0-10.992 0.976-16 2.752L96 174C96 165.354 105.344 160 114 160zM928 846c0 8.656-5.354 18-14 18L114 864c-8.916 0-18-9.084-18-18L96 368c0-8.822 7.178-16 16-16l800 0c8.822 0 16 7.178 16 16L928 846z" p-id="8363"></path></svg>