<?xml version="1.0" standalone="no"?><!DOCTYPE svg PUBLIC "-//W3C//DTD SVG 1.1//EN" "http://www.w3.org/Graphics/SVG/1.1/DTD/svg11.dtd"><svg t="1534494320737" class="icon" style="" viewBox="0 0 1024 1024" version="1.1" xmlns="http://www.w3.org/2000/svg" p-id="3068" xmlns:xlink="http://www.w3.org/1999/xlink" width="200" height="200"><defs><style type="text/css"></style></defs><path d="M810.666667 256l-85.333333 0c0-117.76-95.573333-213.333333-213.333333-213.333333s-213.333333 95.573333-213.333333 213.333333l-85.333333 0c-47.146667 0-84.906667 38.186667-84.906667 85.333333l-0.426667 512c0 47.146667 38.186667 85.333333 85.333333 85.333333l597.333333 0c47.146667 0 85.333333-38.186667 85.333333-85.333333l0-512c0-47.146667-38.186667-85.333333-85.333333-85.333333zM512 128c70.613333 0 128 57.386667 128 128l-256 0c0-70.613333 57.386667-128 128-128zM512 554.666667c-117.76 0-213.333333-95.573333-213.333333-213.333333l85.333333 0c0 70.613333 57.386667 128 128 128s128-57.386667 128-128l85.333333 0c0 117.76-95.573333 213.333333-213.333333 213.333333z" p-id="3069"></path></svg>