<?xml version="1.0" standalone="no"?><!DOCTYPE svg PUBLIC "-//W3C//DTD SVG 1.1//EN" "http://www.w3.org/Graphics/SVG/1.1/DTD/svg11.dtd"><svg t="1585991800489" class="icon" viewBox="0 0 1024 1024" version="1.1" xmlns="http://www.w3.org/2000/svg" p-id="754" xmlns:xlink="http://www.w3.org/1999/xlink" width="200" height="200"><defs><style type="text/css"></style></defs><path d="M944.832 922.496c0 12.16-9.92 22.08-22.016 22.08H95.488a22.08 22.08 0 0 1-22.016-22.08V558.528c0-12.16 9.856-22.016 22.016-22.016h252.736A181.376 181.376 0 0 0 509.184 634.88a181.248 181.248 0 0 0 160.896-98.432h252.736c12.16 0 22.016 9.856 22.016 22.016v363.968zM217.6 98.368c3.968-12.8 22.4-24.96 38.016-24.96h507.2c17.28 0 34.304 13.248 38.016 25.024l114.048 364.608h-268.928a36.736 36.736 0 0 0-34.752 24.832 108.032 108.032 0 0 1-101.952 73.6 108.16 108.16 0 0 1-102.016-73.6 36.736 36.736 0 0 0-34.816-24.832H103.488l114.048-364.672z m791.488 419.776l-138.112-441.6C857.344 32.96 810.816 0 762.752 0H255.552c-48.128 0-94.592 32.896-108.16 76.544l-138.112 441.6C3.52 530.56 0 544.128 0 558.592v363.968c0 52.672 42.88 95.488 95.488 95.488H922.88c52.608 0 95.488-42.816 95.488-95.488V558.528c0-14.464-3.52-28.096-9.28-40.384z m-340.672 233.216H349.952a29.376 29.376 0 1 0 0 58.752h318.4a29.376 29.376 0 1 0 0-58.752zM246.208 397.44h525.888a22.016 22.016 0 0 0 0-44.16H246.208a22.016 22.016 0 0 0 0 44.16z m33.728-112.128h458.368a22.016 22.016 0 0 0 0-44.096H279.936a22.016 22.016 0 0 0 0 44.16z m27.52-112.128h403.392a22.08 22.08 0 0 0 0-44.032H307.456a22.08 22.08 0 0 0 0 44.032z" p-id="755" data-spm-anchor-id="a313x.7781069.0.i0" class="selected"></path></svg>