<?xml version="1.0" standalone="no"?><!DOCTYPE svg PUBLIC "-//W3C//DTD SVG 1.1//EN" "http://www.w3.org/Graphics/SVG/1.1/DTD/svg11.dtd"><svg t="1585992053889" class="icon" viewBox="0 0 1024 1024" version="1.1" xmlns="http://www.w3.org/2000/svg" p-id="1299" xmlns:xlink="http://www.w3.org/1999/xlink" width="200" height="200"><defs><style type="text/css"></style></defs><path d="M681.408 626.88c-7.168-7.616-14.688-14.88-22.56-21.792-6.624-5.792-16.736-5.184-22.56 1.472-5.824 6.656-5.152 16.736 1.504 22.592 7.072 6.208 13.856 12.736 20.288 19.616 7.2 7.648 13.952 15.68 20.256 24.096C716.064 723.04 736 782.848 736 845.824c0 8.832 7.168 16 16 16s16-7.168 16-16c0-69.984-22.176-136.416-64.128-192.16C696.864 644.32 689.376 635.36 681.408 626.88z" p-id="1300"></path><path d="M807.552 638.464c-6.368-8.416-13.12-16.48-20.352-24.16-6.464-6.88-13.28-13.472-20.384-19.712-6.688-5.824-16.768-5.184-22.592 1.472-5.824 6.656-5.152 16.736 1.472 22.592 6.336 5.536 12.416 11.392 18.176 17.536 6.4 6.848 12.48 14.08 18.112 21.536 33.728 44.864 51.552 98.368 51.552 154.688 0 8.832 7.168 16 16 16s16-7.168 16-16C865.6 749.088 845.536 688.96 807.552 638.464z" p-id="1301"></path><path d="M769.856 389.408c0-106.88-86.976-193.824-193.856-193.824-4.32 0-8.512 0.384-12.768 0.64-33.28-21.44-72.8-34.048-115.232-34.048-117.792 0-213.6 95.84-213.6 213.6 0 72.16 36.032 135.936 90.976 174.624C207.712 599.488 128 716.256 128 845.824c0 8.832 7.168 16 16 16s16-7.168 16-16c0-125.28 82.752-237.376 201.856-274.72 26.368 11.68 55.488 18.304 86.144 18.304 26.4 0 51.584-5.024 74.912-13.824 16.896 4.864 34.624 7.68 53.088 7.68C682.88 583.264 769.856 496.288 769.856 389.408zM448 557.376c-100.128 0-181.6-81.472-181.6-181.6 0-100.128 81.472-181.6 181.6-181.6s181.6 81.472 181.6 181.6C629.6 475.936 548.128 557.376 448 557.376zM576 551.264c-1.952 0-3.776-0.512-5.728-0.576 55.136-38.656 91.328-102.56 91.328-174.88 0-56.192-21.984-107.232-57.568-145.408 0 0 0 0 0 0 75.872 13.376 133.792 79.36 133.792 159.008C737.856 478.656 665.248 551.264 576 551.264z" p-id="1302"></path><path d="M384 768 448 832 512 768 448 608Z" p-id="1303"></path></svg>